<?xml version="1.0" encoding="utf-8"?><svg xmlns="http://www.w3.org/2000/svg" viewBox="0 0 971.25 517"><defs><style>.cls-1{fill:#fff;}</style></defs><g id="Camada_2" data-name="Camada 2"><g id="Layer_1" data-name="Layer 1"><polygon class="cls-1" points="65.98 226.49 205.47 226.49 205.47 169.84 65.98 169.84 65.98 99.88 222.8 99.88 222.8 42.79 0 42.79 0 258.5 65.98 258.5 65.98 226.49"/><path class="cls-1" d="M371.73,3c0,12-4.41,21.82-13.1,29-8.48,7-19.8,10.62-33.65,10.62H258.5v54h20.16l89.73,102.18H447L355,94.46l6.08-1.33C384.42,88,403,77.29,416.34,61.27s20-35.9,20-59.19c0-.7,0-1.38-.05-2.08H371.62C371.68,1,371.73,2,371.73,3Z"/><path class="cls-1" d="M517,28.92V200.64H644.39l20.88,54.2h70.18L629,0H529.09Zm105.8,116H536.14l43.08-111.5Z"/><path class="cls-1" d="M798.74,154.23V209.1h92.52l-1.65,4.84c-5.86,17.28-16.12,31.05-30.48,40.93-1.89,1.3-3.82,2.5-5.81,3.63h83c13.8-23.19,20.78-50.24,20.78-80.83a212.27,212.27,0,0,0-1.37-23.44Z"/><path class="cls-1" d="M881.77,127.12l64-18.51c-10-25.73-27.36-46-51.7-60.4C868.39,33.07,838.53,25.4,805.29,25.4a174.87,174.87,0,0,0-29.78,2.49v62a91.54,91.54,0,0,1,29.78-4.75C840.74,85.16,866.45,99.27,881.77,127.12Z"/><polygon class="cls-1" points="63.58 478.48 0 361.21 0 498.06 9.92 517 117.24 517 167.64 420.82 167.64 517 231.39 517 231.39 290.09 165.71 290.09 63.58 478.48"/><polygon class="cls-1" points="483.07 402.08 324.48 402.08 324.48 338.79 468.86 338.79 468.86 286.58 324.48 286.58 324.48 258.5 258.5 258.5 258.5 457.84 483.07 457.84 483.07 402.08"/><polygon class="cls-1" points="650.28 475.96 517.01 318.7 517.01 417.78 603.7 517 715.82 517 715.82 291.95 650.28 291.95 650.28 475.96"/><polygon class="cls-1" points="775.51 347.59 809.32 347.59 809.32 517 874.85 517 874.85 347.59 971.25 347.59 971.25 290.94 775.51 290.94 775.51 347.59"/></g></g></svg>